Coordinates
version=1
nRows=24
nColumns=24
inDegrees=yes

Units are S.I. units (second, meters, Newtons, ...)
Angles are in degrees.

endheader
time	pelvis_tilt	pelvis_list	pelvis_rotation	pelvis_tx	pelvis_ty	pelvis_tz	hip_flexion_r	hip_adduction_r	hip_rotation_r	knee_angle_r	ankle_angle_r	subtalar_angle_r	mtp_angle_r	hip_flexion_l	hip_adduction_l	hip_rotation_l	knee_angle_l	ankle_angle_l	subtalar_angle_l	mtp_angle_l	lumbar_extension	lumbar_bending	lumbar_rotation
      1.76650000	     -0.15025488	      6.20855283	     -2.00667711	      1.43560016	      1.01932030	      0.24041337	     16.61682591	     -6.09715289	     -0.05185707	    -68.24184269	      4.48605981	    -15.32599448	      3.23502926	      3.71433406	     11.29646170	     -0.03621756	     -7.01759197	      1.34762494	    -13.92300202	      7.10624070	     -1.42774584	     -7.26331557	      4.82220718
      1.77066667	     -0.15531336	      6.10833503	     -1.69823328	      1.44032621	      1.01975372	      0.23964526	     17.06354178	     -5.95174987	     -0.19653877	    -67.83037715	      4.60025459	    -15.45631134	      3.12418235	      3.24832184	     11.23611949	      0.27863263	     -6.74351798	      1.46369788	    -13.82276839	      7.05656648	     -1.46504682	     -7.14441878	      4.61839500
      1.77483333	     -0.18559363	      6.01543123	     -1.40595558	      1.44505111	      1.02011544	      0.23891686	     17.53905748	     -5.80984918	     -0.31500828	    -67.39932693	      4.72055847	    -15.59850042	      3.00685838	      2.80743450	     11.17658667	      0.57791482	     -6.45885013	      1.53309693	    -13.73368324	      7.00630774	     -1.47420289	     -7.03669982	      4.35881802
      1.77900000	     -0.20651794	      5.92656265	     -1.09964236	      1.44977615	      1.02046341	      0.23817883	     17.99165226	     -5.68603625	     -0.45209316	    -66.93821687	      4.82930481	    -15.72236867	      2.89357278	      2.35710100	     11.11752231	      0.89208150	     -6.17131565	      1.59999837	    -13.64788555	      6.95813511	     -1.49118023	     -6.93558041	      4.08670544
      1.78316667	     -0.23901143	      5.84421419	     -0.79571838	      1.45445200	      1.02074123	      0.23745329	     18.45821250	     -5.57648440	     -0.58694635	    -66.46345393	      4.97815751	    -15.81475142	      2.84522843	      1.93913528	     11.05798219	      1.15715137	     -5.91531562	      1.65188780	    -13.50473554	      6.94085719	     -1.49632081	     -6.84442891	      3.96295755
      1.78733333	     -0.26076433	      5.75268411	     -0.51001294	      1.45914321	      1.02102902	      0.23676611	     18.90065021	     -5.45015636	     -0.69599651	    -65.94144679	      5.04831416	    -15.94177773	      2.71700035	      1.49481793	     10.98816379	      1.48735966	     -5.63013768	      1.73381839	    -13.48484335	      6.89090131	     -1.51904516	     -6.74417767	      3.57597006
      1.79150000	     -0.28380736	      5.67020404	     -0.21241107	      1.46381877	      1.02127817	      0.23606646	     19.33672886	     -5.34803051	     -0.82075846	    -65.40189044	      5.16437496	    -16.01330635	      2.58593267	      1.05799073	     10.92231072	      1.78984728	     -5.35219323	      1.79239335	    -13.41865071	      6.84242012	     -1.53713477	     -6.65257505	      3.31559180
      1.79566667	     -0.31611780	      5.60741485	      0.07913556	      1.46848860	      1.02145790	      0.23538123	     19.78530106	     -5.27527490	     -0.94021160	    -64.85743152	      5.31658537	    -16.06302469	      2.54659243	      0.64761145	     10.87063384	      2.04171051	     -5.09829610	      1.84392796	    -13.26305862	      6.83041314	     -1.53794799	     -6.57712586	      3.23088873
      1.79983333	     -0.32742849	      5.51285265	      0.37367816	      1.47315745	      1.02167861	      0.23472319	     20.18559308	     -5.16461389	     -1.05993632	    -64.24814050	      5.37198210	    -16.14122057	      2.42542911	      0.21079296	     10.78304090	      2.36685979	     -4.84718525	      1.93698133	    -13.25014151	      6.78998053	     -1.57153606	     -6.48442021	      2.84103733
      1.80400000	     -0.34101770	      5.44047952	      0.67192785	      1.47781005	      1.02185480	      0.23405833	     20.58605470	     -5.08929753	     -1.18113458	    -63.63158105	      5.47780857	    -16.16762905	      2.30514741	     -0.22526375	     10.71401412	      2.67289141	     -4.58050904	      1.98538497	    -13.19666602	      6.74884157	     -1.60165538	     -6.40916644	      2.60350513
      1.80816667	     -0.38103493	      5.37483104	      0.97138216	      1.48242876	      1.02194656	      0.23341296	     21.01429362	     -5.02405337	     -1.29612846	    -63.00135207	      5.59795410	    -16.20510873	      2.13318949	     -0.62311876	     10.64732585	      2.97677325	     -4.33112803	      2.01196789	    -13.14364510	      6.69060150	     -1.60859849	     -6.34668624	      2.32262645
      1.81233333	     -0.41727498	      5.30727753	      1.24824143	      1.48707127	      1.02201673	      0.23280605	     21.42890952	     -4.95508958	     -1.39220719	    -62.34092594	      5.69158486	    -16.19355945	      2.08321683	     -1.01461154	     10.57313093	      3.21583065	     -4.09987286	      2.09048790	    -13.02678737	      6.67738659	     -1.60391402	     -6.28061183	      2.23994682
      1.81650000	     -0.45543151	      5.23699284	      1.55041209	      1.49171865	      1.02206453	      0.23217773	     21.82506976	     -4.89566661	     -1.51073543	    -61.64995755	      5.77803233	    -16.19231841	      2.02391611	     -1.40131174	     10.49237489	      3.50638662	     -3.87579735	      2.16488222	    -12.94288628	      6.66081530	     -1.60658167	     -6.21219113	      2.04541011
      1.82066667	     -0.48141800	      5.17244689	      1.82440146	      1.49634321	      1.02209764	      0.23158518	     22.20926888	     -4.83983748	     -1.60537686	    -60.93458393	      5.86415634	    -16.17238431	      1.96314854	     -1.80355848	     10.41500411	      3.77549935	     -3.63998424	      2.22824431	    -12.87963987	      6.64439908	     -1.61388178	     -6.14553601	      1.82499979
      1.82483333	     -0.48131204	      5.12376400	      2.10873384	      1.50094402	      1.02212939	      0.23099819	     22.55658880	     -4.80733243	     -1.70390238	    -60.20836919	      5.92898387	    -16.15664428	      1.84964155	     -2.25351383	     10.34947327	      4.10924584	     -3.36517699	      2.28308515	    -12.89135872	      6.61200479	     -1.67104435	     -6.09523057	      1.46577099
      1.82900000	     -0.53332081	      5.08787419	      2.36618495	      1.50557356	      1.02204387	      0.23046057	     22.95970350	     -4.78518583	     -1.77498975	    -59.47125010	      6.02190642	    -16.11247717	      1.82336705	     -2.62399574	     10.29362999	      4.32688386	     -3.12719136	      2.34540233	    -12.75911764	      6.60758486	     -1.65112698	     -6.06253584	      1.41576208
      1.83316667	     -0.52378418	      5.02411487	      2.66043899	      1.51020586	      1.02206795	      0.22988207	     23.25868951	     -4.74850264	     -1.89158483	    -58.66448726	      6.06536376	    -16.05167601	      1.73620584	     -3.06365333	     10.20191875	      4.64316606	     -2.89907639	      2.42597137	    -12.75818734	      6.58223609	     -1.70718057	     -6.00512334	      1.09665759
      1.83733333	     -0.57665628	      4.98553591	      2.93825873	      1.51482386	      1.02193526	      0.22934423	     23.63548572	     -4.73413554	     -1.97165585	    -57.87197494	      6.12176695	    -15.98280821	      1.64837066	     -3.43726943	     10.13541939	      4.92452554	     -2.65599355	      2.47376905	    -12.71761645	      6.55730745	     -1.69589235	     -5.97649544	      0.87258554
      1.84150000	     -0.61973031	      4.93909160	      3.21601776	      1.51948437	      1.02180146	      0.22881442	     23.98106880	     -4.71871161	     -2.06540071	    -57.04056267	      6.18500266	    -15.89840281	      1.61539097	     -3.81108868	     10.05437261	      5.16160630	     -2.44207252	      2.54385931	    -12.59999423	      6.54975653	     -1.68750250	     -5.94303272	      0.78829595
      1.84566667	     -0.62426574	      4.90956908	      3.47881065	      1.52407177	      1.02168684	      0.22831983	     24.28412926	     -4.71616124	     -2.13783227	    -56.19521658	      6.21164673	    -15.80909256	      1.54879449	     -4.23513891	      9.98693407	      5.43432156	     -2.19803016	      2.62571395	    -12.55221096	      6.53033912	     -1.73610896	     -5.92180461	      0.50716012
      1.84983333	     -0.68561975	      4.87385089	      3.73735117	      1.52872373	      1.02147822	      0.22782900	     24.63194762	     -4.71357018	     -2.21147823	    -55.31438659	      6.23932262	    -15.69814891	      1.52699326	     -4.58552040	      9.91316854	      5.65163966	     -1.98547911	      2.70367462	    -12.43869431	      6.52407857	     -1.69855066	     -5.89879483	      0.44212246
      1.85400000	     -0.70531536	      4.84525642	      4.00178729	      1.53333700	      1.02128176	      0.22734032	     24.92586474	     -4.72337792	     -2.29348514	    -54.42056262	      6.26340744	    -15.57616133	      1.48614462	     -4.99280677	      9.84008300	      5.91298409	     -1.74481438	      2.80110798	    -12.38566204	      6.50696870	     -1.72766017	     -5.88021025	      0.18784861
      1.85816667	     -0.75039045	      4.81350634	      4.27609964	      1.53797596	      1.02104224	      0.22684713	     25.22930918	     -4.73859185	     -2.38435387	    -53.49195511	      6.28051963	    -15.43599379	      1.47190936	     -5.35562946	      9.76055065	      6.13821498	     -1.54229958	      2.89275763	    -12.26348896	      6.50177385	     -1.71708674	     -5.86249546	      0.09718949
      1.86233333	     -0.79898615	      4.79201616	      4.53705145	      1.54259226	      1.02076165	      0.22638158	     25.53136359	     -4.76293161	     -2.46307897	    -52.54574185	      6.28452593	    -15.28560741	      1.46394528	     -5.71617024	      9.69023064	      6.36384671	     -1.32854344	      2.99207690	    -12.14695050	      6.49662064	     -1.71577578	     -5.85658171	     -0.02585432
